# Blender v2.78 (sub 0) OBJ File: ''
# www.blender.org
mtllib arco_pomba.mtl
o Circle
v 0.000000 -0.016338 -1.157903
v -0.225896 -0.016338 -1.135654
v -0.443110 -0.016338 -1.069763
v -0.643296 -0.016338 -0.962761
v -0.818761 -0.016338 -0.818761
v -0.962761 -0.016338 -0.643296
v -1.069763 -0.016338 -0.443110
v -1.135654 -0.016338 -0.225896
v -1.157903 -0.016338 -0.000000
v -1.135654 -0.016338 0.225896
v -1.069763 -0.016338 0.443110
v -0.962761 -0.016338 0.643296
v -0.818761 -0.016338 0.818761
v -0.643296 -0.016338 0.962761
v -0.443110 -0.016338 1.069763
v -0.225895 -0.016338 1.135654
v 0.000000 -0.016338 1.157903
v 0.225896 -0.016338 1.135654
v 0.443111 -0.016338 1.069763
v 0.643297 -0.016338 0.962761
v 0.818762 -0.016338 0.818761
v 0.962762 -0.016338 0.643296
v 1.069763 -0.016338 0.443109
v 1.135654 -0.016338 0.225895
v 1.157903 -0.016338 -0.000001
v 1.135654 -0.016338 -0.225897
v 1.069762 -0.016338 -0.443111
v 0.962760 -0.016338 -0.643298
v 0.818760 -0.016338 -0.818762
v 0.643295 -0.016338 -0.962762
v 0.443109 -0.016338 -1.069763
v 0.225894 -0.016338 -1.135654
v 0.000000 -0.004765 -1.203424
v -0.234776 -0.004765 -1.180300
v -0.460530 -0.004765 -1.111819
v -0.668587 -0.004765 -1.000611
v -0.850949 -0.004765 -0.850949
v -1.000611 -0.004765 -0.668586
v -1.111819 -0.004765 -0.460530
v -1.180300 -0.004765 -0.234776
v -1.203424 -0.004765 -0.000000
v -1.180301 -0.004765 0.234776
v -1.111819 -0.004765 0.460530
v -1.000611 -0.004765 0.668587
v -0.850949 -0.004765 0.850949
v -0.668587 -0.004765 1.000611
v -0.460530 -0.004765 1.111819
v -0.234776 -0.004765 1.180301
v 0.000000 -0.004765 1.203424
v 0.234777 -0.004765 1.180301
v 0.460531 -0.004765 1.111819
v 0.668587 -0.004765 1.000610
v 0.850950 -0.004765 0.850949
v 1.000611 -0.004765 0.668586
v 1.111819 -0.004765 0.460530
v 1.180301 -0.004765 0.234775
v 1.203424 -0.004765 -0.000001
v 1.180300 -0.004765 -0.234778
v 1.111818 -0.004765 -0.460532
v 1.000610 -0.004765 -0.668588
v 0.850948 -0.004765 -0.850950
v 0.668585 -0.004765 -1.000611
v 0.460529 -0.004765 -1.111820
v 0.234775 -0.004765 -1.180301
v -0.225896 0.223270 -1.135654
v 0.000000 0.223270 -1.157903
v -0.443110 0.223270 -1.069763
v -0.643296 0.223270 -0.962761
v -0.818761 0.223270 -0.818761
v -0.962761 0.223270 -0.643296
v -1.069763 0.223270 -0.443110
v -1.135654 0.223270 -0.225896
v -1.157903 0.223270 -0.000000
v -1.135654 0.223270 0.225896
v -1.069763 0.223270 0.443110
v -0.962761 0.223270 0.643296
v -0.818761 0.223270 0.818761
v -0.643296 0.223270 0.962761
v -0.443110 0.223270 1.069763
v -0.225895 0.223270 1.135654
v 0.000000 0.223270 1.157903
v 0.225896 0.223270 1.135654
v 0.443111 0.223270 1.069763
v 0.643297 0.223270 0.962761
v 0.818762 0.223270 0.818761
v 0.962762 0.223270 0.643296
v 1.069763 0.223270 0.443109
v 1.135654 0.223270 0.225895
v 1.157903 0.223270 -0.000001
v 1.135654 0.223270 -0.225897
v 1.069762 0.223270 -0.443111
v 0.962760 0.223270 -0.643298
v 0.818760 0.223270 -0.818762
v 0.643295 0.223270 -0.962762
v 0.443109 0.223270 -1.069763
v 0.225894 0.223270 -1.135654
v -0.234776 0.211698 -1.180300
v 0.000000 0.211698 -1.203424
v -0.460530 0.211698 -1.111819
v -0.668587 0.211698 -1.000611
v -0.850949 0.211698 -0.850949
v -1.000611 0.211698 -0.668586
v -1.111819 0.211698 -0.460530
v -1.180300 0.211698 -0.234776
v -1.203424 0.211698 -0.000000
v -1.180301 0.211698 0.234776
v -1.111819 0.211698 0.460530
v -1.000611 0.211698 0.668587
v -0.850949 0.211698 0.850949
v -0.668587 0.211698 1.000611
v -0.460530 0.211698 1.111819
v -0.234776 0.211698 1.180301
v 0.000000 0.211698 1.203424
v 0.234777 0.211698 1.180301
v 0.460531 0.211698 1.111819
v 0.668587 0.211698 1.000610
v 0.850950 0.211698 0.850949
v 1.000611 0.211698 0.668586
v 1.111819 0.211698 0.460530
v 1.180301 0.211698 0.234775
v 1.203424 0.211698 -0.000001
v 1.180300 0.211698 -0.234778
v 1.111818 0.211698 -0.460532
v 1.000610 0.211698 -0.668588
v 0.850948 0.211698 -0.850950
v 0.668585 0.211698 -1.000611
v 0.460529 0.211698 -1.111820
v 0.234775 0.211698 -1.180301
v 1.070114 0.103466 0.715026
v 0.910057 0.103466 0.910056
v 0.715027 0.103466 1.070113
v 0.492520 0.103466 1.189046
v 1.262284 0.103466 -0.251085
v 1.287014 0.103466 -0.000001
v 1.262285 0.103466 0.251083
v 1.189047 0.103466 0.492518
v -0.910056 0.103466 -0.910056
v -0.715027 0.103466 -1.070113
v -0.492519 0.103466 -1.189046
v -0.251084 0.103466 -1.262284
v 0.715025 0.103466 -1.070114
v 0.910055 0.103466 -0.910057
v 1.070112 0.103466 -0.715028
v 1.189045 0.103466 -0.492520
v -1.287014 0.103466 -0.000000
v -1.262284 0.103466 -0.251084
v -1.189046 0.103466 -0.492519
v -1.070113 0.103466 -0.715027
v 0.251082 0.103466 -1.262285
v 0.492517 0.103466 -1.189047
v -0.910056 0.103466 0.910056
v -1.070113 0.103466 0.715027
v -1.189046 0.103466 0.492519
v -1.262285 0.103466 0.251084
v 0.000000 0.103466 1.287014
v -0.251084 0.103466 1.262285
v -0.492519 0.103466 1.189046
v -0.715027 0.103466 1.070113
v 0.251085 0.103466 1.262285
v 0.000000 0.103466 -1.287014
v 1.047333 0.160109 0.699805
v 0.699806 0.160109 1.047333
v 1.235413 0.160109 -0.245740
v 1.235414 0.160109 0.245738
v -0.890683 0.160109 -0.890683
v -0.482034 0.160109 -1.163734
v 0.699804 0.160109 -1.047334
v 1.047332 0.160109 -0.699807
v -1.259617 0.160109 -0.000000
v -1.163734 0.160109 -0.482034
v 0.245737 0.160109 -1.235414
v -0.890683 0.160109 0.890683
v -1.163734 0.160109 0.482034
v 0.000000 0.160109 1.259617
v -0.482034 0.160109 1.163734
v 0.890684 0.160109 0.890683
v 0.482035 0.160109 1.163734
v 1.259617 0.160109 -0.000001
v 1.163734 0.160109 0.482034
v -0.699805 0.160109 -1.047333
v -0.245739 0.160109 -1.235413
v 0.890682 0.160109 -0.890684
v 1.163733 0.160109 -0.482036
v -1.235413 0.160109 -0.245739
v -1.047333 0.160109 -0.699805
v 0.482033 0.160109 -1.163735
v -1.047333 0.160109 0.699806
v -1.235413 0.160109 0.245739
v -0.245739 0.160109 1.235414
v -0.699805 0.160109 1.047333
v 0.245740 0.160109 1.235413
v 0.000000 0.160109 -1.259616
v 0.890684 0.046824 0.890683
v 0.482035 0.046824 1.163734
v 1.259617 0.046824 -0.000001
v 1.163734 0.046824 0.482034
v -0.699805 0.046824 -1.047333
v -0.245739 0.046824 -1.235413
v 0.890682 0.046824 -0.890684
v 1.163733 0.046824 -0.482036
v -1.235413 0.046824 -0.245739
v -1.047333 0.046824 -0.699805
v 0.482033 0.046824 -1.163735
v -1.047333 0.046824 0.699805
v -1.235413 0.046824 0.245739
v -0.245739 0.046824 1.235414
v -0.699805 0.046824 1.047333
v 0.245740 0.046824 1.235413
v 0.000000 0.046824 -1.259616
v 1.047333 0.046824 0.699805
v 0.699806 0.046824 1.047333
v 1.235413 0.046824 -0.245740
v 1.235414 0.046824 0.245738
v -0.890683 0.046824 -0.890683
v -0.482034 0.046824 -1.163734
v 0.699804 0.046824 -1.047334
v 1.047332 0.046824 -0.699807
v -1.259617 0.046824 -0.000000
v -1.163734 0.046824 -0.482034
v 0.245737 0.046824 -1.235414
v -0.890683 0.046824 0.890683
v -1.163734 0.046824 0.482034
v 0.000000 0.046824 1.259617
v -0.482034 0.046824 1.163734
vn 0.1570 -0.9689 -0.1913
vn 0.1570 -0.9689 0.1913
vn -0.1167 -0.9689 0.2183
vn -0.1913 -0.9689 -0.1570
vn 0.2368 -0.9689 0.0718
vn 0.2463 -0.9689 0.0243
vn 0.0718 -0.9689 0.2368
vn -0.2463 -0.9689 0.0243
vn 0.2183 -0.9689 -0.1167
vn -0.1167 -0.9689 -0.2183
vn 0.1913 -0.9689 -0.1570
vn 0.0718 -0.9689 -0.2368
vn -0.1570 -0.9689 0.1913
vn -0.1570 -0.9689 -0.1913
vn 0.2183 -0.9689 0.1167
vn -0.2368 -0.9689 -0.0718
vn 0.0243 -0.9689 -0.2463
vn -0.2463 -0.9689 -0.0243
vn 0.2368 -0.9689 -0.0718
vn 0.0243 -0.9689 0.2463
vn -0.0718 -0.9689 -0.2368
vn -0.2183 -0.9689 0.1167
vn 0.1167 -0.9689 -0.2183
vn 0.1913 -0.9689 0.1570
vn -0.1913 -0.9689 0.1570
vn -0.0718 -0.9689 0.2368
vn -0.2183 -0.9689 -0.1167
vn 0.2463 -0.9689 -0.0243
vn -0.0243 -0.9689 0.2463
vn 0.1167 -0.9689 0.2183
vn -0.2368 -0.9689 0.0718
vn -0.0243 -0.9689 -0.2463
vn 0.1570 0.9689 -0.1913
vn 0.1570 0.9689 0.1913
vn -0.1167 0.9689 0.2183
vn -0.1913 0.9689 -0.1570
vn 0.2368 0.9689 0.0718
vn 0.2463 0.9689 0.0243
vn 0.0718 0.9689 0.2368
vn -0.2463 0.9689 0.0243
vn 0.2183 0.9689 -0.1167
vn -0.1167 0.9689 -0.2183
vn 0.1913 0.9689 -0.1570
vn 0.0718 0.9689 -0.2368
vn -0.1570 0.9689 0.1913
vn -0.1570 0.9689 -0.1913
vn 0.2183 0.9689 0.1167
vn -0.2368 0.9689 -0.0718
vn 0.0243 0.9689 -0.2463
vn -0.2463 0.9689 -0.0243
vn 0.2368 0.9689 -0.0718
vn 0.0243 0.9689 0.2463
vn -0.0718 0.9689 -0.2368
vn -0.2183 0.9689 0.1167
vn 0.1167 0.9689 -0.2183
vn 0.1913 0.9689 0.1570
vn -0.1913 0.9689 0.1570
vn -0.0718 0.9689 0.2368
vn -0.2183 0.9689 -0.1167
vn 0.2463 0.9689 -0.0243
vn -0.0243 0.9689 0.2463
vn 0.1167 0.9689 0.2183
vn -0.2368 0.9689 0.0718
vn -0.0243 0.9689 -0.2463
vn 0.7730 0.0000 0.6344
vn 0.5241 0.7350 0.4302
vn 0.4714 0.0000 0.8819
vn 0.3196 0.7350 0.5980
vn -0.0980 0.0000 0.9952
vn -0.4714 0.0000 0.8819
vn 0.9952 0.0000 -0.0980
vn 0.6748 0.7350 -0.0665
vn 0.9569 0.0000 0.2903
vn 0.6489 0.7350 0.1968
vn -0.4302 0.7350 -0.5241
vn -0.1968 0.7350 -0.6489
vn 0.6344 0.0000 -0.7730
vn 0.4302 0.7350 -0.5241
vn 0.8819 0.0000 -0.4714
vn 0.5980 0.7350 -0.3196
vn -0.6748 0.7350 -0.0665
vn -0.5980 0.7350 -0.3196
vn -0.0980 0.0000 -0.9952
vn 0.2903 0.0000 -0.9569
vn 0.1968 0.7350 -0.6489
vn -0.5241 0.7350 0.4302
vn -0.6489 0.7350 0.1968
vn -0.7730 0.0000 -0.6344
vn -0.4714 0.0000 -0.8819
vn -0.0665 0.7350 0.6748
vn -0.3196 0.7350 0.5980
vn -0.9952 0.0000 0.0980
vn -0.9569 0.0000 -0.2903
vn 0.6344 0.0000 0.7730
vn 0.4302 0.7350 0.5241
vn 0.2903 0.0000 0.9569
vn 0.1968 0.7350 0.6489
vn -0.6344 0.0000 0.7730
vn -0.8819 0.0000 0.4714
vn 0.9952 0.0000 0.0980
vn 0.6748 0.7350 0.0665
vn 0.8819 0.0000 0.4714
vn 0.5980 0.7350 0.3196
vn -0.0665 0.7350 -0.6748
vn -0.2903 0.0000 0.9569
vn 0.7730 0.0000 -0.6344
vn 0.5241 0.7350 -0.4302
vn 0.9569 0.0000 -0.2903
vn 0.6489 0.7350 -0.1968
vn -0.5241 0.7350 -0.4302
vn -0.3196 0.7350 -0.5980
vn 0.0980 0.0000 -0.9952
vn 0.0665 0.7350 -0.6748
vn 0.4714 0.0000 -0.8819
vn 0.3196 0.7350 -0.5980
vn -0.6748 0.7350 0.0665
vn -0.6489 0.7350 -0.1968
vn -0.6344 0.0000 -0.7730
vn -0.2903 0.0000 -0.9569
vn -0.4302 0.7350 0.5241
vn -0.5980 0.7350 0.3196
vn -0.9952 0.0000 -0.0980
vn -0.8819 0.0000 -0.4714
vn 0.0980 0.0000 0.9952
vn 0.0665 0.7350 0.6748
vn -0.1968 0.7350 0.6489
vn -0.7730 0.0000 0.6344
vn -0.9569 0.0000 0.2903
vn -0.2616 -0.4337 0.8622
vn 0.0883 -0.4337 0.8967
vn -0.7947 -0.4337 0.4247
vn -0.5716 -0.4337 0.6965
vn -0.8622 -0.4337 -0.2616
vn -0.8967 -0.4337 0.0883
vn 0.4247 -0.4337 -0.7947
vn 0.0883 -0.4337 -0.8967
vn -0.4247 -0.4337 -0.7947
vn -0.6965 -0.4337 -0.5716
vn 0.8622 -0.4337 -0.2616
vn 0.6965 -0.4337 -0.5716
vn -0.0883 -0.4337 -0.8967
vn 0.7947 -0.4337 0.4247
vn 0.8967 -0.4337 0.0883
vn 0.2616 -0.4337 0.8622
vn 0.5716 -0.4337 0.6965
vn -0.4247 -0.4337 0.7946
vn -0.0883 -0.4337 0.8967
vn -0.8622 -0.4337 0.2616
vn -0.6965 -0.4337 0.5716
vn 0.2616 -0.4337 -0.8622
vn -0.7947 -0.4337 -0.4247
vn -0.8967 -0.4337 -0.0883
vn 0.7947 -0.4337 -0.4247
vn 0.5716 -0.4337 -0.6965
vn -0.2616 -0.4337 -0.8622
vn -0.5716 -0.4337 -0.6965
vn 0.8622 -0.4337 0.2616
vn 0.8967 -0.4337 -0.0883
vn 0.4247 -0.4337 0.7946
vn 0.6965 -0.4337 0.5716
vn -0.2616 0.4337 0.8622
vn 0.0883 0.4337 0.8967
vn -0.7947 0.4337 0.4247
vn -0.5716 0.4337 0.6965
vn -0.8622 0.4337 -0.2616
vn -0.8967 0.4337 0.0883
vn 0.4247 0.4337 -0.7947
vn 0.0883 0.4337 -0.8967
vn -0.4247 0.4337 -0.7947
vn -0.6965 0.4337 -0.5716
vn 0.8622 0.4337 -0.2616
vn 0.6965 0.4337 -0.5716
vn -0.0883 0.4337 -0.8967
vn 0.7947 0.4337 0.4247
vn 0.8967 0.4337 0.0883
vn 0.2616 0.4337 0.8622
vn 0.5716 0.4337 0.6965
vn -0.4247 0.4337 0.7946
vn -0.0883 0.4337 0.8967
vn -0.8622 0.4337 0.2616
vn -0.6965 0.4337 0.5716
vn 0.2616 0.4337 -0.8622
vn -0.7947 0.4337 -0.4247
vn -0.8967 0.4337 -0.0883
vn 0.7947 0.4337 -0.4248
vn 0.5716 0.4337 -0.6965
vn -0.2616 0.4337 -0.8622
vn -0.5716 0.4337 -0.6965
vn 0.8622 0.4337 0.2616
vn 0.8967 0.4337 -0.0883
vn 0.4248 0.4337 0.7946
vn 0.6965 0.4337 0.5716
vn 0.5241 -0.7350 0.4302
vn 0.3196 -0.7350 0.5980
vn 0.6748 -0.7350 -0.0665
vn 0.6489 -0.7350 0.1968
vn -0.4302 -0.7350 -0.5241
vn -0.1968 -0.7350 -0.6489
vn 0.4302 -0.7350 -0.5241
vn 0.5980 -0.7350 -0.3196
vn -0.6748 -0.7350 -0.0665
vn -0.5980 -0.7350 -0.3196
vn 0.1968 -0.7350 -0.6489
vn -0.5241 -0.7350 0.4302
vn -0.6489 -0.7350 0.1968
vn -0.0665 -0.7350 0.6748
vn -0.3196 -0.7350 0.5980
vn 0.4302 -0.7350 0.5241
vn 0.1968 -0.7350 0.6489
vn 0.6748 -0.7350 0.0665
vn 0.5980 -0.7350 0.3196
vn -0.0665 -0.7350 -0.6748
vn 0.5241 -0.7350 -0.4302
vn 0.6489 -0.7350 -0.1968
vn -0.5241 -0.7350 -0.4302
vn -0.3196 -0.7350 -0.5980
vn 0.0665 -0.7350 -0.6748
vn 0.3196 -0.7350 -0.5980
vn -0.6748 -0.7350 0.0665
vn -0.6489 -0.7350 -0.1968
vn -0.4302 -0.7350 0.5241
vn -0.5980 -0.7350 0.3196
vn 0.0665 -0.7350 0.6748
vn -0.1968 -0.7350 0.6489
usemtl None
s off
f 30//1 62//1 61//1 29//1
f 21//2 53//2 52//2 20//2
f 15//3 47//3 46//3 14//3
f 6//4 38//4 37//4 5//4
f 24//5 56//5 55//5 23//5
f 25//6 57//6 56//6 24//6
f 19//7 51//7 50//7 18//7
f 10//8 42//8 41//8 9//8
f 28//9 60//9 59//9 27//9
f 4//10 36//10 35//10 3//10
f 29//11 61//11 60//11 28//11
f 32//12 64//12 63//12 31//12
f 14//13 46//13 45//13 13//13
f 5//14 37//14 36//14 4//14
f 23//15 55//15 54//15 22//15
f 8//16 40//16 39//16 7//16
f 1//17 33//17 64//17 32//17
f 9//18 41//18 40//18 8//18
f 27//19 59//19 58//19 26//19
f 18//20 50//20 49//20 17//20
f 3//21 35//21 34//21 2//21
f 12//22 44//22 43//22 11//22
f 31//23 63//23 62//23 30//23
f 22//24 54//24 53//24 21//24
f 13//25 45//25 44//25 12//25
f 16//26 48//26 47//26 15//26
f 7//27 39//27 38//27 6//27
f 26//28 58//28 57//28 25//28
f 17//29 49//29 48//29 16//29
f 20//30 52//30 51//30 19//30
f 11//31 43//31 42//31 10//31
f 2//32 34//32 33//32 1//32
f 94//33 93//33 125//33 126//33
f 85//34 84//34 116//34 117//34
f 79//35 78//35 110//35 111//35
f 70//36 69//36 101//36 102//36
f 88//37 87//37 119//37 120//37
f 89//38 88//38 120//38 121//38
f 83//39 82//39 114//39 115//39
f 74//40 73//40 105//40 106//40
f 92//41 91//41 123//41 124//41
f 68//42 67//42 99//42 100//42
f 93//43 92//43 124//43 125//43
f 96//44 95//44 127//44 128//44
f 78//45 77//45 109//45 110//45
f 69//46 68//46 100//46 101//46
f 87//47 86//47 118//47 119//47
f 72//48 71//48 103//48 104//48
f 66//49 96//49 128//49 98//49
f 73//50 72//50 104//50 105//50
f 91//51 90//51 122//51 123//51
f 82//52 81//52 113//52 114//52
f 67//53 65//53 97//53 99//53
f 76//54 75//54 107//54 108//54
f 95//55 94//55 126//55 127//55
f 86//56 85//56 117//56 118//56
f 77//57 76//57 108//57 109//57
f 80//58 79//58 111//58 112//58
f 71//59 70//59 102//59 103//59
f 90//60 89//60 121//60 122//60
f 81//61 80//61 112//61 113//61
f 84//62 83//62 115//62 116//62
f 75//63 74//63 106//63 107//63
f 65//64 66//64 98//64 97//64
f 6//65 5//65 69//65 70//65
f 176//66 161//66 118//66 117//66
f 4//67 3//67 67//67 68//67
f 177//68 162//68 116//68 115//68
f 1//69 32//69 96//69 66//69
f 31//70 30//70 94//70 95//70
f 10//71 9//71 73//71 74//71
f 178//72 163//72 122//72 121//72
f 8//73 7//73 71//73 72//73
f 179//74 164//74 120//74 119//74
f 180//75 165//75 101//75 100//75
f 181//76 166//76 99//76 97//76
f 14//77 13//77 77//77 78//77
f 182//78 167//78 126//78 125//78
f 12//79 11//79 75//79 76//79
f 183//80 168//80 124//80 123//80
f 184//81 169//81 105//81 104//81
f 185//82 170//82 103//82 102//82
f 18//83 17//83 81//83 82//83
f 16//84 15//84 79//84 80//84
f 186//85 171//85 128//85 127//85
f 187//86 172//86 109//86 108//86
f 188//87 173//87 107//87 106//87
f 22//88 21//88 85//88 86//88
f 20//89 19//89 83//89 84//89
f 189//90 174//90 113//90 112//90
f 190//91 175//91 111//91 110//91
f 26//92 25//92 89//92 90//92
f 24//93 23//93 87//93 88//93
f 5//94 4//94 68//94 69//94
f 162//95 176//95 117//95 116//95
f 3//96 2//96 65//96 67//96
f 191//97 177//97 115//97 114//97
f 30//98 29//98 93//98 94//98
f 28//99 27//99 91//99 92//99
f 9//100 8//100 72//100 73//100
f 164//101 178//101 121//101 120//101
f 7//102 6//102 70//102 71//102
f 161//103 179//103 119//103 118//103
f 192//104 181//104 97//104 98//104
f 32//105 31//105 95//105 96//105
f 13//106 12//106 76//106 77//106
f 168//107 182//107 125//107 124//107
f 11//108 10//108 74//108 75//108
f 163//109 183//109 123//109 122//109
f 165//110 185//110 102//110 101//110
f 166//111 180//111 100//111 99//111
f 17//112 16//112 80//112 81//112
f 171//113 192//113 98//113 128//113
f 15//114 14//114 78//114 79//114
f 167//115 186//115 127//115 126//115
f 169//116 188//116 106//116 105//116
f 170//117 184//117 104//117 103//117
f 21//118 20//118 84//118 85//118
f 19//119 18//119 82//119 83//119
f 172//120 190//120 110//120 109//120
f 173//121 187//121 108//121 107//121
f 25//122 24//122 88//122 89//122
f 23//123 22//123 86//123 87//123
f 2//124 1//124 66//124 65//124
f 174//125 191//125 114//125 113//125
f 175//126 189//126 112//126 111//126
f 29//127 28//127 92//127 93//127
f 27//128 26//128 90//128 91//128
f 224//129 206//129 156//129 157//129
f 223//130 208//130 159//130 155//130
f 222//131 204//131 152//131 153//131
f 221//132 207//132 158//132 151//132
f 219//133 201//133 146//133 147//133
f 218//134 205//134 154//134 145//134
f 216//135 203//135 150//135 141//135
f 220//136 209//136 160//136 149//136
f 215//137 197//137 138//137 139//137
f 214//138 202//138 148//138 137//138
f 212//139 200//139 144//139 133//139
f 217//140 199//140 142//140 143//140
f 209//141 198//141 140//141 160//141
f 210//142 196//142 136//142 129//142
f 213//143 195//143 134//143 135//143
f 208//144 194//144 132//144 159//144
f 211//145 193//145 130//145 131//145
f 207//146 224//146 157//146 158//146
f 206//147 223//147 155//147 156//147
f 205//148 222//148 153//148 154//148
f 204//149 221//149 151//149 152//149
f 203//150 220//150 149//150 150//150
f 202//151 219//151 147//151 148//151
f 201//152 218//152 145//152 146//152
f 200//153 217//153 143//153 144//153
f 199//154 216//154 141//154 142//154
f 198//155 215//155 139//155 140//155
f 197//156 214//156 137//156 138//156
f 196//157 213//157 135//157 136//157
f 195//158 212//158 133//158 134//158
f 194//159 211//159 131//159 132//159
f 193//160 210//160 129//160 130//160
f 157//161 156//161 189//161 175//161
f 155//162 159//162 191//162 174//162
f 153//163 152//163 187//163 173//163
f 151//164 158//164 190//164 172//164
f 147//165 146//165 184//165 170//165
f 145//166 154//166 188//166 169//166
f 141//167 150//167 186//167 167//167
f 149//168 160//168 192//168 171//168
f 139//169 138//169 180//169 166//169
f 137//170 148//170 185//170 165//170
f 133//171 144//171 183//171 163//171
f 143//172 142//172 182//172 168//172
f 160//173 140//173 181//173 192//173
f 129//174 136//174 179//174 161//174
f 135//175 134//175 178//175 164//175
f 159//176 132//176 177//176 191//176
f 131//177 130//177 176//177 162//177
f 158//178 157//178 175//178 190//178
f 156//179 155//179 174//179 189//179
f 154//180 153//180 173//180 188//180
f 152//181 151//181 172//181 187//181
f 150//182 149//182 171//182 186//182
f 148//183 147//183 170//183 185//183
f 146//184 145//184 169//184 184//184
f 144//185 143//185 168//185 183//185
f 142//186 141//186 167//186 182//186
f 140//187 139//187 166//187 181//187
f 138//188 137//188 165//188 180//188
f 136//189 135//189 164//189 179//189
f 134//190 133//190 163//190 178//190
f 132//191 131//191 162//191 177//191
f 130//192 129//192 161//192 176//192
f 53//193 54//193 210//193 193//193
f 51//194 52//194 211//194 194//194
f 57//195 58//195 212//195 195//195
f 55//196 56//196 213//196 196//196
f 36//197 37//197 214//197 197//197
f 34//198 35//198 215//198 198//198
f 61//199 62//199 216//199 199//199
f 59//200 60//200 217//200 200//200
f 40//201 41//201 218//201 201//201
f 38//202 39//202 219//202 202//202
f 63//203 64//203 220//203 203//203
f 44//204 45//204 221//204 204//204
f 42//205 43//205 222//205 205//205
f 48//206 49//206 223//206 206//206
f 46//207 47//207 224//207 207//207
f 52//208 53//208 193//208 211//208
f 50//209 51//209 194//209 208//209
f 56//210 57//210 195//210 213//210
f 54//211 55//211 196//211 210//211
f 33//212 34//212 198//212 209//212
f 60//213 61//213 199//213 217//213
f 58//214 59//214 200//214 212//214
f 37//215 38//215 202//215 214//215
f 35//216 36//216 197//216 215//216
f 64//217 33//217 209//217 220//217
f 62//218 63//218 203//218 216//218
f 41//219 42//219 205//219 218//219
f 39//220 40//220 201//220 219//220
f 45//221 46//221 207//221 221//221
f 43//222 44//222 204//222 222//222
f 49//223 50//223 208//223 223//223
f 47//224 48//224 206//224 224//224
